HIERARCHY
ROOT Hips
{
  OFFSET 90.7885 88.945 -76.2838
  CHANNELS 6 Xposition Yposition Zposition Zrotation Xrotation Yrotation
  JOINT LeftUpLeg
  {
    OFFSET 8.64259 1.95398 -2.38835
    CHANNELS 3 Zrotation Xrotation Yrotation
    JOINT LeftLeg
    {
      OFFSET 43.7702 0 0
      CHANNELS 3 Zrotation Xrotation Yrotation
      JOINT LeftFoot
      {
        OFFSET 40.6238 0 0
        CHANNELS 3 Zrotation Xrotation Yrotation
        JOINT LeftToeBase
        {
          OFFSET 12.7242 0 0
          CHANNELS 3 Zrotation Xrotation Yrotation
          End Site
          {
            OFFSET 0 0 0
          }
        }
      }
    }
  }
  JOINT RightUpLeg
  {
    OFFSET -8.2249 1.95398 -2.59336
    CHANNELS 3 Zrotation Xrotation Yrotation
    JOINT RightLeg
    {
      OFFSET 43.5653 0 0
      CHANNELS 3 Zrotation Xrotation Yrotation
      JOINT RightFoot
      {
        OFFSET 40.6238 0 0
        CHANNELS 3 Zrotation Xrotation Yrotation
        JOINT RightToeBase
        {
          OFFSET 12.7242 0 0
          CHANNELS 3 Zrotation Xrotation Yrotation
          End Site
          {
            OFFSET 0 0 0
          }
        }
      }
    }
  }
  JOINT Spine
  {
    OFFSET 0.165834 0.87714 6.61349
    CHANNELS 3 Zrotation Xrotation Yrotation
    JOINT Spine1
    {
      OFFSET 7.38963 1.71661e-005 0
      CHANNELS 3 Zrotation Xrotation Yrotation
      JOINT Spine2
      {
        OFFSET 11.9445 1.14441e-005 0
        CHANNELS 3 Zrotation Xrotation Yrotation
        JOINT Spine3
        {
          OFFSET 14.7254 4.19617e-005 0
          CHANNELS 3 Zrotation Xrotation Yrotation
          JOINT Spine4
          {
            OFFSET 10.9679 0 0
            CHANNELS 3 Zrotation Xrotation Yrotation
            JOINT RightShoulder
            {
              OFFSET 2.46616 -1.6653 3.69651
              CHANNELS 3 Zrotation Xrotation Yrotation
              JOINT RightArm
              {
                OFFSET 13.0012 0 0
                CHANNELS 3 Zrotation Xrotation Yrotation
                JOINT RightForeArm
                {
                  OFFSET 28.7848 1.52588e-005 0
                  CHANNELS 3 Zrotation Xrotation Yrotation
                  JOINT RightHand
                  {
                    OFFSET 26.5688 1.52588e-005 0
                    CHANNELS 3 Zrotation Xrotation Yrotation
                    End Site
                    {
                      OFFSET 0 0 0
                    }
                  }
                }
              }
            }
            JOINT LeftShoulder
            {
              OFFSET 2.38034 -1.29275 -3.7523
              CHANNELS 3 Zrotation Xrotation Yrotation
              JOINT LeftArm
              {
                OFFSET 16.3182 6.10352e-005 0
                CHANNELS 3 Zrotation Xrotation Yrotation
                JOINT LeftForeArm
                {
                  OFFSET 27.0901 0 0
                  CHANNELS 3 Zrotation Xrotation Yrotation
                  JOINT LeftHand
                  {
                    OFFSET 24.5451 1.52588e-005 0
                    CHANNELS 3 Zrotation Xrotation Yrotation
                    End Site
                    {
                      OFFSET 0 0 0
                    }
                  }
                }
              }
            }
            JOINT Neck
            {
              OFFSET 5.0226 -0.0266342 0
              CHANNELS 3 Zrotation Xrotation Yrotation
              JOINT Head
              {
                OFFSET 6.69363 2.86102e-005 0
                CHANNELS 3 Zrotation Xrotation Yrotation
                End Site
                {
                  OFFSET 0 0 0
                }
              }
            }
          }
        }
      }
    }
  }
}
MOTION
Frames:	10
Frame Time:	0.0416667
32.1117 41.8203 0.932574 -4.06053 -79.2129 -4.11823 -26.0817 54.0125 -24.6929 -144.568 21.8914 12.312 90.4985 13.7044 -0.0780674 -8.68274 3.00519 2.40096 50.038 64.6155 -171.794 -139.663 -23.0916 -5.05605 112.996 -27.8555 0.863903 -0.868493 -2.70459 7.93597 0.728712 12.2346 -90.4475 2.40804 1.28098 -0.851361 -9.2626 1.24227 -0.906927 -31.8021 1.47761 -0.426967 -11.7894 1.47761 -0.426973 87.0885 -16.949 -119.96 -11.6192 19.686 -44.3781 4.0868 3.02993 -9.5566 -1.08408 0.277072 -28.4876 -91.6218 -26.0402 68.6194 12.1633 -11.8814 -78.1505 2.28177 -26.4016 0.00625715 -24.0622 2.23039 -16.4538 46.2677 -0.762345 -1.18144 -16.3003 -0.0475308 -0.0549619 
32.0433 41.179 1.44216 -5.73712 -80.3631 -5.73178 -26.0054 54.6378 -24.4405 -145.905 21.3574 12.3726 92.0012 14.6399 0.68829 -11.0438 5.3408 1.00449 51.7834 65.1173 -173.736 -140.947 -23.4116 -5.10983 113.795 -28.6472 0.266245 -1.40044 -4.59311 10.4072 0.732902 12.0731 -90.4355 2.73109 1.29303 -0.834085 -8.93953 1.25507 -0.890204 -31.4792 1.48392 -0.406851 -11.4665 1.48392 -0.40686 87.1106 -17.0071 -119.867 -11.2142 17.6717 -44.2805 4.08629 3.69818 -10.0685 1.27763 -0.152056 -27.346 -91.6418 -27.0265 69.004 10.7168 -9.75505 -77.899 2.11842 -24.8773 0.00585518 -25.05 2.47648 -17.1258 46.6613 -1.0321 -1.04103 -16.112 -0.374854 -0.0399965 
31.9953 43.3822 0.942618 -5.81313 -77.652 -6.02933 -27.7509 55.1187 -22.9166 -142.485 22.967 12.0117 91.8453 14.8397 0.836219 -10.6266 5.05752 1.15803 50.2735 64.5845 -171.563 -137.52 -24.692 -4.95641 110.129 -26.7485 -0.102482 1.01865 -3.06943 8.34644 0.739348 11.7046 -90.3281 3.46753 1.34629 -0.637416 -8.20289 1.31694 -0.696066 -30.7434 1.47561 -0.203262 -10.7308 1.47561 -0.203253 86.8491 -17.2585 -120.302 -11.4577 16.7474 -43.9482 4.4755 3.37878 -10.2264 0.195247 0.0440649 -27.0426 -91.777 -27.3161 68.86 10.8576 -8.79777 -76.4641 1.99213 -25.6268 0.00559749 -24.3588 2.42466 -17.2638 48.2676 -1.24154 -1.13702 -16.2744 -0.502764 -0.00670313 
31.9361 48.4052 -0.284715 -4.15568 -71.9353 -4.75399 -31.1944 56.277 -20.7012 -133.994 26.4491 10.227 90.943 14.7772 1.24043 -6.82749 5.43411 0.260164 49.0684 63.8306 -169.118 -129.186 -26.3018 -3.94469 105.992 -24.7089 -0.88722 1.62289 -3.68283 9.18753 0.71595 11.2371 -90.2192 4.4017 1.34143 -0.441478 -7.26865 1.3207 -0.500102 -29.8094 1.41208 -0.0178361 -9.79668 1.41208 -0.0178318 87.2351 -17.3314 -119.346 -9.62538 16.8256 -45.5078 4.12417 4.10169 -10.217 -0.281133 0.186954 -27.295 -91.7752 -27.8059 69.0678 9.62056 -8.67719 -76.6278 2.56936 -23.134 0.00529692 -24.0662 2.43088 -17.4734 50.0582 -1.54532 -1.26358 -16.6934 -0.717723 0.217815 
31.72 55.3837 -1.71168 -2.6087 -65.6 -3.02465 -34.8413 60.3224 -19.2778 -120.64 29.7662 5.62228 89.8774 14.1037 0.537418 -7.21545 5.39986 0.349727 52.2619 64.411 -170.603 -116.773 -29.2858 -1.16852 100.929 -22.2941 -2.08479 2.89279 -3.20532 8.50782 0.705946 10.7948 -90.1715 5.28605 1.33952 -0.364039 -6.38426 1.32219 -0.422671 -28.925 1.38697 0.0554319 -8.91233 1.38699 0.0554319 86.8715 -18.4054 -119.451 -8.92628 16.5338 -45.6606 4.17932 1.2481 -9.88819 -1.26464 0.171759 -26.233 -91.9382 -28.2598 68.9408 8.43892 -8.41275 -76.4483 3.29812 -16.6341 0.0390272 -23.1974 2.41166 -17.9265 50.1682 -2.13168 -1.90736 -16.6806 -0.944355 0.681868 
31.4702 63.2555 -2.64832 -2.00702 -58.862 -1.93784 -38.9168 65.2542 -17.055 -103.533 32.9302 -1.99443 85.33 11.8516 0.405784 -1.52529 3.57276 0.951162 58.1368 65.761 -175.481 -100.733 -31.1246 4.09214 95.7643 -18.8087 -1.19254 3.3372 -4.25536 9.97392 0.694156 10.322 -90.1558 6.23169 1.32092 -0.349456 -5.43863 1.30425 -0.407273 -27.9792 1.36486 0.0637647 -7.96654 1.36486 0.0637519 86.4228 -19.5072 -119.72 -8.44428 15.3123 -44.589 3.51276 -0.500564 -10.5277 -2.68905 0.315393 -25.6091 -92.1275 -29.0579 68.9049 9.10262 -7.71882 -75.3282 3.17593 -10.4279 -0.551232 -21.5717 2.16212 -17.6185 50.0096 -2.2137 -1.90417 -15.7349 -0.920158 -0.0872977 
31.3799 71.2557 -2.9908 -1.9031 -53.5608 -1.74869 -50.2555 70.8444 -6.26921 -82.8421 35.2413 -12.6403 81.1544 9.81384 0.772733 -0.475891 2.35943 1.8304 69.3106 67.8324 173.752 -81.1723 -35.4313 11.9777 87.9185 -15.2441 -4.15901 4.68818 -5.00101 11.0458 0.669827 9.86573 -90.0983 7.14385 1.29548 -0.251805 -4.52648 1.28314 -0.308597 -27.0668 1.31125 0.149238 -7.05414 1.31125 0.149234 86.3312 -19.9009 -119.663 -7.15587 13.2408 -42.905 3.47012 -4.7091 -12.2152 -2.82675 0.077697 -26.5733 -92.2906 -29.6153 68.8247 9.60581 -6.40459 -73.6744 2.8485 -2.90052 -3.15854 -22.2164 2.29659 -17.9397 50.1857 -1.82173 -1.53633 -15.3107 -0.720387 -0.480536 
31.4788 78.6704 -2.8573 -1.89983 -50.7463 -2.40688 -80.4814 75.6835 23.0516 -60.8509 32.4794 -23.832 75.9028 7.11581 1.46014 -0.0853477 6.01677 -1.43267 89.14 70.43 155.384 -62.5716 -32.3788 18.1573 82.0339 -11.1763 -2.75507 6.05368 -5.04553 11.1432 0.553989 9.46985 -89.9631 7.93432 1.12206 0.0109711 -3.73615 1.12145 -0.0384373 -26.2749 1.06688 0.347723 -6.26228 1.06687 0.347724 85.763 -21.0682 -120.145 -5.80316 11.3554 -41.0805 2.65902 -9.00462 -14.633 -4.44117 0.0786951 -25.7338 -92.3075 -30.4917 69.1441 11.4931 -4.40805 -71.4512 2.1412 0.0277537 -5.70405 -21.0271 2.2491 -18.5434 50.5219 -1.78046 -1.63457 -15.6323 -0.635084 -0.330213 
31.6467 84.4982 -2.31138 -2.50432 -52.3586 -3.08329 -125.696 73.3859 66.3694 -45.9922 25.1914 -27.8547 73.0781 5.40073 -0.243755 1.89744 4.05582 -0.0490797 118.354 68.7928 128.437 -48.5765 -27.6623 20.2552 77.11 -8.30919 -2.58344 7.62838 -5.09217 11.2467 0.50059 9.25887 -89.9414 8.356 1.02489 0.0535244 -3.31454 1.02625 0.00835485 -25.8526 0.961415 0.359112 -5.83998 0.961415 0.359108 85.1659 -22.4372 -120.54 -4.40193 8.93154 -38.7928 1.55849 -10.549 -17.0304 -6.32501 0.316929 -25.7427 -92.3457 -30.5353 69.0901 9.75988 -2.04822 -69.6123 2.64464 4.84041 -6.60973 -19.9342 2.10702 -18.5228 49.1252 -1.63024 -2.24029 -14.6011 -0.240117 0.21806 
31.7479 88.858 -1.11906 -3.52826 -57.3032 -3.84931 -150.874 65.3758 87.8442 -38.8511 18.5636 -24.8026 70.2423 4.23225 -0.905016 6.48967 3.58573 -0.377652 141.672 62.1623 108.453 -40.248 -22.0773 17.6969 73.1854 -6.21844 -2.14805 11.6534 -4.18282 9.87631 0.421176 9.13643 -89.9589 8.6011 0.858637 0.0267204 -3.06955 0.858977 -0.0111055 -25.6068 0.810909 0.283561 -5.59417 0.810904 0.283553 85.2706 -23.6053 -119.576 -1.27955 6.58618 -37.3549 0.306018 -12.6117 -20.3887 -7.2066 0.323021 -25.4373 -92.3187 -31.7046 69.5978 9.45162 0.765534 -68.0332 2.1282 5.20178 -7.48103 -19.9611 2.02885 -18.0245 46.7051 -1.78559 -3.41713 -13.9016 0.168344 0.685084 
